<?xml version="1.0" encoding="UTF-8"?>
<svg id="Layer_1" data-name="Layer 1" xmlns="http://www.w3.org/2000/svg" viewBox="0 0 133 135">
  <defs>
    <style>
      .cls-1 {
        fill: #731d41;
      }

      .cls-2 {
        fill: #fff;
      }
    </style>
  </defs>
  <rect class="cls-1" x="22.04" y="23.33" width="88.06" height="88.06" rx="8.86" ry="8.86"/>
  <g>
    <path class="cls-2" d="M96.66,88.36c6.92-4.58,10.49-11.87,8.22-18.12-2.2-6.07-9.25-9.36-17.2-8.7-1.68.14-3.4.45-5.12.96l.13-.43c.47-1.55-1.4-2.74-2.6-1.65l-5.36,4.81h0s-16.7,14.98-16.7,14.98c-.2.18-.52-.02-.44-.28l4.13-13.87c.09-.31-.21-.6-.52-.48l-7.85,2.98c-.46.17-.81.55-.95,1.02l-1.34,4.44h0s-9.42,0-9.42,0c-.26,0-.45-.25-.38-.51l3.34-11.19c.23-.79-.41-1.24-1.03-1.01l-7.19,2.74c-.23.09-.4.28-.48.51l-9.28,31.11c-.19.63.42,1.2,1.03.97l7.17-2.71c.23-.09.41-.28.48-.51l3.22-10.81c.05-.17.2-.28.38-.28h9.73l-2.49,8.29c-1.37,4.57,4.13,8.07,7.68,4.88l13.16-11.8c.03.09.06.18.09.27,2.43,6.68,10.72,9.99,19.63,8.37.11-.02.23-.04.34-.06.15-.03.3-.06.44-.09.12-.03.25-.05.37-.08l3.9,3.18c.54.44,1.31.47,1.89.08l4.75-3.22c.44-.3.47-.93.06-1.27l-2.52-2.06h0s0,0,0,0c.22-.13.43-.27.64-.4.04-.02.07-.04.1-.06ZM89.26,83.39l-.47-.38c-.47-.38-1.12-.46-1.67-.21l-.09.04h0c-2.5.95-6.36,2-8.9-.71-.47-.52-.84-1.12-1.08-1.79-1.33-3.67,1.58-8.1,6.52-9.89,1.08-.39,2.16-.62,3.21-.71,3.75-.3,7.07,1.25,8.11,4.11,1.25,3.44-1.24,7.56-5.63,9.53Z"/>
    <path class="cls-2" d="M51.63,43.72l-2.01,7.29h7.76l2.52-8.45h-6.75c-.71,0-1.33.47-1.52,1.16Z"/>
    <path class="cls-2" d="M77.25,42.56h-7.98l-2.52,8.45h6.97c.71,0,1.33-.47,1.52-1.16l2.01-7.29Z"/>
    <path class="cls-2" d="M63,38c-.7,0-1.31.46-1.51,1.13l-1.02,3.42-2.52,8.45-5.07,16.9,8.61-3.26c.46-.17.81-.55.95-1.02l3.78-12.62,2.52-8.45,1.36-4.55h-7.09Z"/>
  </g>
</svg>